<svg id="Layer_2" data-name="Layer 2" xmlns="http://www.w3.org/2000/svg" width="124.205" height="139" viewBox="0 0 124.205 139">
  <g id="Layer_1" data-name="Layer 1">
    <path id="Path_8" data-name="Path 8" d="M25.068,0l1.866.657A8.467,8.467,0,0,1,32.81,8.709V32.347a8.674,8.674,0,0,1-17.28.207V8.536A8.605,8.605,0,0,1,21.889.449,4.549,4.549,0,0,0,23.2,0Z" transform="translate(38.14)" fill="#383838"/>
    <path id="Path_9" data-name="Path 9" d="M0,21.836l.622-1.693A9.124,9.124,0,1,1,.38,25.258,12.372,12.372,0,0,0,0,24.048Z" transform="translate(0 34.357)" fill="#383838"/>
    <path id="Path_10" data-name="Path 10" d="M49.026,24.873a25.748,25.748,0,0,1-2.385,4.285,9.054,9.054,0,0,1-11.059,2.177A9.194,9.194,0,1,1,48.473,20.208l.553,1.348Z" transform="translate(75.179 34.257)" fill="#383838"/>
    <path id="Path_11" data-name="Path 11" d="M32.834,59.438V95.829a8.674,8.674,0,1,1-17.28,0V22.944a8.674,8.674,0,1,1,17.28,0C32.869,35.178,32.834,47.308,32.834,59.438Z" transform="translate(38.116 33.145)" fill="#383838"/>
    <path id="Path_12" data-name="Path 12" d="M48.214,54.1v25.09a8.19,8.19,0,0,1-6.532,8.294A8.709,8.709,0,0,1,31.315,82.5a9.642,9.642,0,0,1-.587-3.456V28.972a8.052,8.052,0,0,1,8.64-8.432,8.018,8.018,0,0,1,8.813,8.605Q48.214,41.517,48.214,54.1Z" transform="translate(75.438 50.341)" fill="#383838"/>
    <path id="Path_13" data-name="Path 13" d="M.282,53.983V29.066a7.879,7.879,0,0,1,5.46-7.949,8.882,8.882,0,0,1,9.711,2.074A8.363,8.363,0,0,1,17.769,29.2V79.073a8.225,8.225,0,0,1-9.193,8.536A8.156,8.156,0,0,1,.282,78.934C.247,70.675.282,62.311.282,53.983Z" transform="translate(0.651 50.282)" fill="#383838"/>
    <path id="Path_14" data-name="Path 14" d="M7.968,50.344V36.14a8.709,8.709,0,1,1,17.28-.346q0,14.653,0,29.341a8.709,8.709,0,1,1-17.28-.415C7.933,60.124,7.968,55.147,7.968,50.344Z" transform="translate(19.334 64.289)" fill="#383838"/>
    <path id="Path_15" data-name="Path 15" d="M40.43,49.7V64.28a8.674,8.674,0,0,1-17.28.242q0-14.774,0-29.548A8.605,8.605,0,0,1,32,26.472a8.5,8.5,0,0,1,8.4,8.743C40.43,39.985,40.43,44.823,40.43,49.7Z" transform="translate(56.854 65.005)" fill="#383838"/>
    <path id="Path_16" data-name="Path 16" d="M7.9,26.592V15.119a8.536,8.536,0,0,1,8.26-8.813,8.467,8.467,0,0,1,9.089,8.4c.173,7.949,0,15.9,0,23.811A8.674,8.674,0,0,1,7.973,38.2C7.869,34.334,7.9,30.463,7.9,26.592Z" transform="translate(19.398 15.431)" fill="#383838"/>
    <path id="Path_17" data-name="Path 17" d="M40.528,27.542V39.154a8.5,8.5,0,0,1-8.605,8.674,8.674,8.674,0,0,1-8.743-8.64q0-11.716,0-23.431a8.709,8.709,0,1,1,17.28,0Z" transform="translate(56.756 14.62)" fill="#383838"/>
    <path id="Path_18" data-name="Path 18" d="M32.113,37.936A9.089,9.089,0,1,1,38.6,35.323a9.158,9.158,0,0,1-6.482,2.613Z" transform="translate(56.461 48.185)" fill="#383838"/>
    <path id="Path_19" data-name="Path 19" d="M26.125,28.719a9.193,9.193,0,1,1-9.158-9.089,9.089,9.089,0,0,1,9.158,9.089Z" transform="translate(19.009 48.209)" fill="#383838"/>
  </g>
</svg>
