<svg id="Layer_2" data-name="Layer 2" xmlns="http://www.w3.org/2000/svg" width="89.356" height="100" viewBox="0 0 89.356 100">
  <g id="Layer_1" data-name="Layer 1">
    <path id="Path_8" data-name="Path 8" d="M22.392,0l1.343.472a6.091,6.091,0,0,1,4.227,5.793V23.271a6.241,6.241,0,0,1-12.431.149V6.141A6.191,6.191,0,0,1,20.1.323,3.273,3.273,0,0,0,21.049,0Z" transform="translate(23.082)" fill="#fff"/>
    <path id="Path_9" data-name="Path 9" d="M0,19.635l.448-1.218A6.564,6.564,0,1,1,.273,22.1,8.9,8.9,0,0,0,0,21.226Z" transform="translate(0 20.792)" fill="#fff"/>
    <path id="Path_10" data-name="Path 10" d="M43.859,21.808a18.524,18.524,0,0,1-1.716,3.083,6.514,6.514,0,0,1-7.956,1.566,6.615,6.615,0,1,1,9.274-8.006l.4.97Z" transform="translate(45.497 20.732)" fill="#fff"/>
    <path id="Path_11" data-name="Path 11" d="M27.976,46.548v26.18a6.241,6.241,0,1,1-12.431,0V20.293a6.241,6.241,0,1,1,12.431,0C28,29.095,27.976,37.821,27.976,46.548Z" transform="translate(23.067 20.059)" fill="#fff"/>
    <path id="Path_12" data-name="Path 12" d="M43.3,44.67V62.72a5.892,5.892,0,0,1-4.7,5.967,6.265,6.265,0,0,1-7.459-3.58,6.937,6.937,0,0,1-.423-2.486V26.595a5.793,5.793,0,0,1,6.216-6.066,5.768,5.768,0,0,1,6.34,6.191Q43.3,35.62,43.3,44.67Z" transform="translate(45.654 30.465)" fill="#fff"/>
    <path id="Path_13" data-name="Path 13" d="M.277,44.581V26.655a5.669,5.669,0,0,1,3.928-5.718,6.39,6.39,0,0,1,6.986,1.492,6.017,6.017,0,0,1,1.666,4.326V62.631a5.917,5.917,0,0,1-6.613,6.141A5.868,5.868,0,0,1,.277,62.532C.252,56.59.277,50.573.277,44.581Z" transform="translate(0.394 30.43)" fill="#fff"/>
    <path id="Path_14" data-name="Path 14" d="M7.941,43.563V33.345A6.265,6.265,0,1,1,20.372,33.1q0,10.542,0,21.108a6.265,6.265,0,1,1-12.431-.3C7.916,50.6,7.941,47.019,7.941,43.563Z" transform="translate(11.701 38.906)" fill="#fff"/>
    <path id="Path_15" data-name="Path 15" d="M35.581,43.179V53.671a6.241,6.241,0,0,1-12.431.174q0-10.629,0-21.258a6.191,6.191,0,0,1,6.365-6.116,6.116,6.116,0,0,1,6.042,6.29C35.581,36.193,35.581,39.674,35.581,43.179Z" transform="translate(34.407 39.34)" fill="#fff"/>
    <path id="Path_16" data-name="Path 16" d="M7.9,20.894V12.64A6.141,6.141,0,0,1,13.845,6.3a6.091,6.091,0,0,1,6.539,6.042c.124,5.718,0,11.437,0,17.13a6.241,6.241,0,0,1-12.431-.224C7.878,26.463,7.9,23.679,7.9,20.894Z" transform="translate(11.739 9.339)" fill="#fff"/>
    <path id="Path_17" data-name="Path 17" d="M35.641,21.484v8.354a6.116,6.116,0,0,1-6.191,6.241,6.241,6.241,0,0,1-6.29-6.216q0-8.428,0-16.857a6.265,6.265,0,1,1,12.431,0Z" transform="translate(34.347 8.848)" fill="#fff"/>
    <path id="Path_18" data-name="Path 18" d="M29.554,32.8a6.539,6.539,0,1,1,4.663-1.88,6.589,6.589,0,0,1-4.663,1.88Z" transform="translate(34.169 29.16)" fill="#fff"/>
    <path id="Path_19" data-name="Path 19" d="M20.967,26.169a6.613,6.613,0,1,1-6.589-6.539,6.539,6.539,0,0,1,6.589,6.539Z" transform="translate(11.504 29.175)" fill="#fff"/>
  </g>
</svg>
