<svg xmlns="http://www.w3.org/2000/svg" data-name="Layer 2" width="124.20500183105469" height="139"><rect id="backgroundrect" width="100%" height="100%" x="0" y="0" fill="none" stroke="none"/>
  
<g class="currentLayer" style=""><title>Layer 1</title><g id="Layer_1" data-name="Layer 1" class="selected" opacity="0.26">
    <path id="Path_8" data-name="Path 8" d="M63.207999389648435,0 l1.866,0.6570000000000001 A8.467,8.467 0 0 1 70.94999938964844,8.709 V32.347 a8.674,8.674 0 0 1 -17.28,0.20700000000000002 V8.536 A8.605,8.605 0 0 1 60.02899938964843,0.44900000000000007 A4.549,4.549 0 0 0 61.33999938964844,0 z" fill="#383838" opacity="0.26"/>
    <path id="Path_9" data-name="Path 9" d="M0,56.192998443603514 l0.6220000000000001,-1.693 A9.124,9.124 0 1 1 0.38000000000000006,59.61499844360351 A12.372,12.372 0 0 0 0,58.40499844360352 z" fill="#383838" opacity="0.26"/>
    <path id="Path_10" data-name="Path 10" d="M124.2050008544922,59.12999996948243 a25.748,25.748 0 0 1 -2.3850000000000002,4.285 a9.054,9.054 0 0 1 -11.059,2.177 A9.194,9.194 0 1 1 123.65200085449219,54.46499996948242 l0.553,1.348 z" fill="#383838" opacity="0.26"/>
    <path id="Path_11" data-name="Path 11" d="M70.9500011291504,92.58300045776367 V128.97400045776368 a8.674,8.674 0 1 1 -17.28,0 V56.089000457763674 a8.674,8.674 0 1 1 17.28,0 C70.98500112915039,68.32300045776367 70.9500011291504,80.45300045776366 70.9500011291504,92.58300045776367 z" fill="#383838" opacity="0.26"/>
    <path id="Path_12" data-name="Path 12" d="M123.65200354003906,104.44099960327148 v25.09 a8.19,8.19 0 0 1 -6.532,8.294 A8.709,8.709 0 0 1 106.75300354003906,132.84099960327148 a9.642,9.642 0 0 1 -0.5870000000000001,-3.456 V79.31299960327149 a8.052,8.052 0 0 1 8.64,-8.432 a8.018,8.018 0 0 1 8.813,8.605 Q123.65200354003906,91.85799960327148 123.65200354003906,104.44099960327148 z" fill="#383838" opacity="0.26"/>
    <path id="Path_13" data-name="Path 13" d="M0.9330000228881836,104.26500149536133 V79.34800149536133 a7.8790000000000004,7.8790000000000004 0 0 1 5.46,-7.949 a8.882,8.882 0 0 1 9.711,2.074 A8.363,8.363 0 0 1 18.420000022888182,79.48200149536133 V129.3550014953613 a8.225,8.225 0 0 1 -9.193,8.536 A8.156,8.156 0 0 1 0.9330000228881836,129.21600149536133 C0.8980000228881836,120.95700149536133 0.9330000228881836,112.59300149536134 0.9330000228881836,104.26500149536133 z" fill="#383838" opacity="0.26"/>
    <path id="Path_14" data-name="Path 14" d="M27.301999633789062,114.63300146484374 V100.42900146484375 a8.709,8.709 0 1 1 17.28,-0.3460000000000001 q0,14.653 0,29.341 a8.709,8.709 0 1 1 -17.28,-0.41500000000000004 C27.266999633789062,124.41300146484375 27.301999633789062,119.43600146484374 27.301999633789062,114.63300146484374 z" fill="#383838" opacity="0.26"/>
    <path id="Path_15" data-name="Path 15" d="M97.28400009155274,114.70499725341797 V129.28499725341797 a8.674,8.674 0 0 1 -17.28,0.24200000000000002 q0,-14.774000000000001 0,-29.548000000000002 A8.605,8.605 0 0 1 88.85400009155273,91.47699725341798 a8.5,8.5 0 0 1 8.4,8.743 C97.28400009155274,104.98999725341797 97.28400009155274,109.82799725341798 97.28400009155274,114.70499725341797 z" fill="#383838" opacity="0.26"/>
    <path id="Path_16" data-name="Path 16" d="M27.298000717163085,42.022999755859374 V30.549999755859375 a8.536,8.536 0 0 1 8.26,-8.813 a8.467,8.467 0 0 1 9.089,8.4 c0.17300000000000001,7.949 0,15.9 0,23.811 A8.674,8.674 0 0 1 27.371000717163085,53.63099975585938 C27.267000717163086,49.76499975585938 27.298000717163085,45.893999755859376 27.298000717163085,42.022999755859374 z" fill="#383838" opacity="0.26"/>
    <path id="Path_17" data-name="Path 17" d="M97.28400051879882,42.161999885559084 V53.773999885559085 a8.5,8.5 0 0 1 -8.605,8.674 a8.674,8.674 0 0 1 -8.743,-8.64 q0,-11.716 0,-23.431 a8.709,8.709 0 1 1 17.28,0 z" fill="#383838" opacity="0.26"/>
    <path id="Path_18" data-name="Path 18" d="M88.57399853515625,86.12100137329102 A9.089,9.089 0 1 1 95.06099853515624,83.50800137329102 a9.158,9.158 0 0 1 -6.482,2.613 z" fill="#383838" opacity="0.26"/>
    <path id="Path_19" data-name="Path 19" d="M45.13400077819824,76.92799963378906 a9.193,9.193 0 1 1 -9.158,-9.089 a9.089,9.089 0 0 1 9.158,9.089 z" fill="#383838" opacity="0.26"/>
  </g></g></svg>