<svg xmlns="http://www.w3.org/2000/svg" version="1.1" xmlns:xlink="http://www.w3.org/1999/xlink" xmlns:svgjs="http://svgjs.com/svgjs" width="1440" height="1440" preserveAspectRatio="none" viewBox="0 0 1440 1440"><g mask="url(&quot;#SvgjsMask1154&quot;)" fill="none"><rect width="1440" height="1440" x="0" y="0" fill="rgba(251, 251, 251, 1)"></rect><path d="M133 933.8L176.3 958.8L176.3 1008.8L133 1033.8L89.7 1008.8L89.7 958.8zM89.7 1008.8L133 1033.8L133 1083.8L89.7 1108.8L46.39 1083.8L46.39 1033.8zM176.3 858.8L219.6 883.8L219.6 933.8L176.3 958.8L133 933.8L133 883.8zM306.21 633.8L349.51 658.8L349.51 708.8L306.21 733.8L262.9 708.8L262.9 658.8zM262.9 858.8L306.21 883.8L306.21 933.8L262.9 958.8L219.6 933.8L219.6 883.8zM349.51 258.8L392.81 283.8L392.81 333.8L349.51 358.8L306.21 333.8L306.21 283.8zM392.81 483.8L436.12 508.8L436.12 558.8L392.81 583.8L349.51 558.8L349.51 508.8zM349.51 1008.8L392.81 1033.8L392.81 1083.8L349.51 1108.8L306.21 1083.8L306.21 1033.8zM392.81 1233.8L436.12 1258.8L436.12 1308.8L392.81 1333.8L349.51 1308.8L349.51 1258.8zM436.12 408.8L479.42 433.8L479.42 483.8L436.12 508.8L392.81 483.8L392.81 433.8zM479.42 1233.8L522.72 1258.8L522.72 1308.8L479.42 1333.8L436.12 1308.8L436.12 1258.8zM479.42 1383.8L522.72 1408.8L522.72 1458.8L479.42 1483.8L436.12 1458.8L436.12 1408.8zM566.02 1233.8L609.33 1258.8L609.33 1308.8L566.02 1333.8L522.72 1308.8L522.72 1258.8zM566.02 1383.8L609.33 1408.8L609.33 1458.8L566.02 1483.8L522.72 1458.8L522.72 1408.8zM609.33 558.8L652.63 583.8L652.63 633.8L609.33 658.8L566.02 633.8L566.02 583.8zM609.33 858.8L652.63 883.8L652.63 933.8L609.33 958.8L566.02 933.8L566.02 883.8zM652.63 1083.8L695.93 1108.8L695.93 1158.8L652.63 1183.8L609.33 1158.8L609.33 1108.8zM739.23 333.8L782.54 358.8L782.54 408.8L739.23 433.8L695.93 408.8L695.93 358.8zM695.93 858.8L739.23 883.8L739.23 933.8L695.93 958.8L652.63 933.8L652.63 883.8zM739.23 1083.8L782.54 1108.8L782.54 1158.8L739.23 1183.8L695.93 1158.8L695.93 1108.8zM825.84 933.8L869.14 958.8L869.14 1008.8L825.84 1033.8L782.54 1008.8L782.54 958.8zM782.54 1008.8L825.84 1033.8L825.84 1083.8L782.54 1108.8L739.23 1083.8L739.23 1033.8zM825.84 1383.8L869.14 1408.8L869.14 1458.8L825.84 1483.8L782.54 1458.8L782.54 1408.8zM869.14 108.8L912.44 133.8L912.44 183.8L869.14 208.8L825.84 183.8L825.84 133.8zM912.44 633.8L955.75 658.8L955.75 708.8L912.44 733.8L869.14 708.8L869.14 658.8zM912.44 1083.8L955.75 1108.8L955.75 1158.8L912.44 1183.8L869.14 1158.8L869.14 1108.8zM955.75 108.8L999.05 133.8L999.05 183.8L955.75 208.8L912.44 183.8L912.44 133.8zM955.75 258.8L999.05 283.8L999.05 333.8L955.75 358.8L912.44 333.8L912.44 283.8zM999.05 333.8L1042.35 358.8L1042.35 408.8L999.05 433.8L955.75 408.8L955.75 358.8zM999.05 483.8L1042.35 508.8L1042.35 558.8L999.05 583.8L955.75 558.8L955.75 508.8zM999.05 933.8L1042.35 958.8L1042.35 1008.8L999.05 1033.8L955.75 1008.8L955.75 958.8zM1085.65 1383.8L1128.95 1408.8L1128.95 1458.8L1085.65 1483.8L1042.35 1458.8L1042.35 1408.8zM1128.95 408.8L1172.26 433.8L1172.26 483.8L1128.95 508.8L1085.65 483.8L1085.65 433.8zM1128.95 558.8L1172.26 583.8L1172.26 633.8L1128.95 658.8L1085.65 633.8L1085.65 583.8zM1128.95 858.8L1172.26 883.8L1172.26 933.8L1128.95 958.8L1085.65 933.8L1085.65 883.8zM1258.86 1083.8L1302.16 1108.8L1302.16 1158.8L1258.86 1183.8L1215.56 1158.8L1215.56 1108.8zM1345.47 933.8L1388.77 958.8L1388.77 1008.8L1345.47 1033.8L1302.16 1008.8L1302.16 958.8zM1432.07 1383.8L1475.38 1408.8L1475.38 1458.8L1432.07 1483.8L1388.77 1458.8L1388.77 1408.8z" stroke="rgba(19, 180, 71, 0.93)" stroke-width="2"></path></g><defs><mask id="SvgjsMask1154"><rect width="1440" height="1440" fill="#ffffff"></rect></mask></defs></svg>